<svg xmlns="http://www.w3.org/2000/svg" xmlns:xlink="http://www.w3.org/1999/xlink" width="1080" zoomAndPan="magnify" viewBox="0 0 810 809.999993" height="1080" preserveAspectRatio="xMidYMid meet" version="1.0"><defs><g/><clipPath id="da793719ac"><path d="M 79.117188 210.246094 L 745 210.246094 L 745 599.753906 L 79.117188 599.753906 Z M 79.117188 210.246094 " clip-rule="nonzero"/></clipPath><clipPath id="61b795cf9b"><path d="M 117.367188 210.246094 L 706.132812 210.246094 C 716.277344 210.246094 726.007812 214.273438 733.179688 221.449219 C 740.355469 228.621094 744.382812 238.351562 744.382812 248.496094 L 744.382812 561.503906 C 744.382812 571.648438 740.355469 581.378906 733.179688 588.550781 C 726.007812 595.726562 716.277344 599.753906 706.132812 599.753906 L 117.367188 599.753906 C 107.222656 599.753906 97.492188 595.726562 90.320312 588.550781 C 83.144531 581.378906 79.117188 571.648438 79.117188 561.503906 L 79.117188 248.496094 C 79.117188 238.351562 83.144531 228.621094 90.320312 221.449219 C 97.492188 214.273438 107.222656 210.246094 117.367188 210.246094 Z M 117.367188 210.246094 " clip-rule="nonzero"/></clipPath><clipPath id="c7332eb3ef"><path d="M 126.707031 314.324219 L 331 314.324219 L 331 455 L 126.707031 455 Z M 126.707031 314.324219 " clip-rule="nonzero"/></clipPath><clipPath id="a3d4a255ae"><path d="M 271 467 L 299 467 L 299 495.824219 L 271 495.824219 Z M 271 467 " clip-rule="nonzero"/></clipPath><clipPath id="c324a9fe6e"><path d="M 192 467 L 220 467 L 220 495.824219 L 192 495.824219 Z M 192 467 " clip-rule="nonzero"/></clipPath></defs><g clip-path="url(#da793719ac)"><g clip-path="url(#61b795cf9b)"><path fill="#1e2949" d="M 79.117188 210.246094 L 744.023438 210.246094 L 744.023438 599.753906 L 79.117188 599.753906 Z M 79.117188 210.246094 " fill-opacity="1" fill-rule="nonzero"/></g></g><g clip-path="url(#c7332eb3ef)"><path fill="#ffffff" d="M 314.296875 345.613281 L 175.890625 345.613281 C 171.101562 323.105469 158.011719 321.667969 156.894531 321.507812 L 146.835938 321.507812 C 145.242188 317.675781 141.570312 314.324219 137.101562 314.324219 C 131.351562 314.324219 126.722656 318.953125 126.722656 324.699219 C 126.722656 330.449219 131.351562 335.238281 137.101562 335.238281 C 141.570312 335.238281 145.242188 331.726562 146.835938 327.894531 L 156.257812 327.894531 C 156.574219 327.894531 165.355469 330.605469 168.707031 348.964844 C 173.019531 373.390625 184.191406 434.691406 184.191406 434.691406 C 184.191406 441.554688 188.34375 454.007812 203.667969 454.007812 L 262.734375 454.007812 L 260.339844 447.78125 L 203.507812 447.78125 C 196.964844 447.78125 194.089844 442.992188 192.8125 439.640625 C 203.1875 439 231.605469 437.085938 256.667969 435.328125 L 256.828125 435.328125 L 245.015625 397.015625 C 243.898438 393.34375 245.015625 389.355469 247.886719 386.800781 C 250.761719 384.246094 255.230469 383.765625 258.582031 385.523438 L 315.09375 414.097656 C 317.171875 415.054688 318.605469 416.8125 319.566406 418.886719 L 323.238281 417.929688 C 324.511719 415.214844 324.832031 413.300781 324.832031 412.980469 L 330.738281 364.769531 C 332.175781 354.074219 324.832031 345.613281 314.296875 345.613281 Z M 227.292969 381.050781 C 227.613281 380.253906 228.570312 379.777344 229.371094 380.09375 L 240.386719 384.085938 C 241.183594 384.40625 241.660156 385.363281 241.34375 386.160156 C 241.023438 386.800781 240.386719 387.277344 239.746094 387.277344 C 239.585938 387.277344 239.425781 387.277344 239.109375 387.117188 L 228.09375 383.128906 C 227.453125 382.808594 226.976562 381.851562 227.292969 381.050781 Z M 238.949219 399.730469 L 228.410156 404.679688 C 228.253906 404.839844 227.933594 404.839844 227.773438 404.839844 C 227.136719 404.839844 226.496094 404.519531 226.335938 403.878906 C 226.015625 403.082031 226.335938 402.125 227.136719 401.644531 L 237.671875 396.695312 C 238.46875 396.378906 239.425781 396.695312 239.90625 397.496094 C 240.226562 398.292969 239.90625 399.410156 238.949219 399.730469 Z M 246.609375 406.59375 C 247.410156 406.914062 247.886719 407.871094 247.570312 408.667969 L 243.578125 419.84375 C 243.257812 420.484375 242.78125 420.960938 241.980469 420.960938 C 241.820312 420.960938 241.660156 420.960938 241.503906 420.800781 C 240.703125 420.484375 240.226562 419.523438 240.542969 418.726562 L 244.535156 407.550781 C 244.855469 406.753906 245.8125 406.273438 246.609375 406.59375 Z M 250.441406 379.296875 C 250.28125 379.457031 249.964844 379.457031 249.804688 379.457031 C 249.164062 379.457031 248.527344 379.136719 248.367188 378.5 L 243.257812 367.804688 C 242.9375 367.003906 243.257812 366.046875 244.054688 365.566406 C 244.855469 365.25 245.8125 365.566406 246.292969 366.367188 L 251.238281 377.0625 C 251.558594 377.859375 251.238281 378.816406 250.441406 379.296875 Z M 267.683594 368.761719 L 263.691406 379.933594 C 263.371094 380.574219 262.894531 381.050781 262.09375 381.050781 C 261.9375 381.050781 261.777344 381.050781 261.457031 380.894531 C 260.660156 380.574219 260.179688 379.617188 260.5 378.816406 L 264.488281 367.644531 C 264.808594 366.84375 265.765625 366.367188 266.566406 366.683594 C 267.683594 366.84375 268.003906 367.804688 267.683594 368.761719 Z M 283.328125 385.042969 L 272.792969 389.992188 C 272.472656 390.152344 272.3125 390.152344 271.992188 390.152344 C 271.355469 390.152344 270.714844 389.832031 270.554688 389.195312 C 270.238281 388.394531 270.554688 387.4375 271.355469 386.960938 L 281.890625 382.011719 C 282.6875 381.691406 283.644531 382.011719 284.125 382.808594 C 284.605469 383.605469 284.125 384.566406 283.328125 385.042969 Z M 283.328125 385.042969 " fill-opacity="1" fill-rule="nonzero"/></g><path fill="#ffffff" d="M 298.652344 430.859375 L 312.0625 425.589844 C 313.339844 425.113281 314.136719 423.996094 314.136719 422.71875 C 314.136719 421.441406 313.5 420.164062 312.382812 419.523438 L 255.871094 390.949219 C 254.753906 390.3125 253.316406 390.472656 252.199219 391.429688 C 251.238281 392.226562 250.761719 393.664062 251.238281 394.941406 L 270.398438 456.71875 C 270.714844 457.996094 271.832031 458.957031 273.269531 459.113281 C 274.546875 459.273438 275.824219 458.476562 276.460938 457.359375 L 284.125 442.671875 L 300.566406 464.542969 C 301.046875 465.179688 301.84375 465.660156 302.804688 465.820312 C 302.960938 465.820312 303.121094 465.820312 303.28125 465.820312 C 303.921875 465.820312 304.71875 465.660156 305.355469 465.179688 L 315.414062 457.359375 C 316.054688 456.878906 316.53125 456.082031 316.691406 455.125 C 316.851562 454.167969 316.53125 453.367188 316.054688 452.570312 Z M 298.652344 430.859375 " fill-opacity="1" fill-rule="nonzero"/><g clip-path="url(#a3d4a255ae)"><path fill="#ffffff" d="M 285.082031 467.894531 C 277.582031 467.894531 271.355469 474.121094 271.355469 481.785156 C 271.355469 489.445312 277.582031 495.671875 285.082031 495.671875 C 292.585938 495.671875 298.8125 489.445312 298.8125 481.785156 C 298.8125 474.121094 292.585938 467.894531 285.082031 467.894531 Z M 285.082031 467.894531 " fill-opacity="1" fill-rule="nonzero"/></g><g clip-path="url(#c324a9fe6e)"><path fill="#ffffff" d="M 206.0625 467.894531 C 198.558594 467.894531 192.335938 474.121094 192.335938 481.785156 C 192.335938 489.445312 198.558594 495.671875 206.0625 495.671875 C 213.566406 495.671875 219.792969 489.445312 219.792969 481.785156 C 219.792969 474.121094 213.566406 467.894531 206.0625 467.894531 Z M 206.0625 467.894531 " fill-opacity="1" fill-rule="nonzero"/></g><g fill="#ffffff" fill-opacity="1"><g transform="translate(361.327807, 387.564647)"><g><path d="M 16.203125 0.5625 C 14.421875 0.5625 12.722656 0.191406 11.109375 -0.546875 C 9.503906 -1.285156 8.082031 -2.285156 6.84375 -3.546875 C 5.613281 -4.816406 4.640625 -6.3125 3.921875 -8.03125 C 3.203125 -9.757812 2.84375 -11.628906 2.84375 -13.640625 C 2.84375 -15.691406 3.191406 -17.585938 3.890625 -19.328125 C 4.597656 -21.078125 5.546875 -22.582031 6.734375 -23.84375 C 7.929688 -25.113281 9.316406 -26.097656 10.890625 -26.796875 C 12.460938 -27.503906 14.140625 -27.859375 15.921875 -27.859375 C 17.628906 -27.859375 19.238281 -27.515625 20.75 -26.828125 C 22.269531 -26.148438 23.597656 -25.1875 24.734375 -23.9375 C 25.867188 -22.6875 26.769531 -21.1875 27.4375 -19.4375 C 28.101562 -17.695312 28.4375 -15.765625 28.4375 -13.640625 L 28.4375 -12.515625 L 5.40625 -12.515625 C 5.550781 -11.035156 5.925781 -9.648438 6.53125 -8.359375 C 7.144531 -7.066406 7.929688 -5.945312 8.890625 -5 C 9.859375 -4.050781 10.957031 -3.3125 12.1875 -2.78125 C 13.425781 -2.25 14.765625 -1.984375 16.203125 -1.984375 C 17.679688 -1.984375 18.96875 -2.226562 20.0625 -2.71875 C 21.164062 -3.21875 22.097656 -3.769531 22.859375 -4.375 C 23.734375 -5.0625 24.453125 -5.878906 25.015625 -6.828125 L 27.015625 -5.125 C 26.253906 -4.0625 25.34375 -3.113281 24.28125 -2.28125 C 23.375 -1.550781 22.242188 -0.894531 20.890625 -0.3125 C 19.546875 0.269531 17.984375 0.5625 16.203125 0.5625 Z M 25.875 -15.0625 C 25.570312 -18.207031 24.519531 -20.695312 22.71875 -22.53125 C 20.914062 -24.375 18.648438 -25.296875 15.921875 -25.296875 C 14.554688 -25.296875 13.253906 -25.007812 12.015625 -24.4375 C 10.785156 -23.875 9.6875 -23.128906 8.71875 -22.203125 C 7.757812 -21.273438 6.984375 -20.191406 6.390625 -18.953125 C 5.804688 -17.722656 5.476562 -16.425781 5.40625 -15.0625 Z M 25.875 -15.0625 "/></g></g></g><g fill="#ffffff" fill-opacity="1"><g transform="translate(392.595301, 387.564647)"><g><path d="M 2.84375 -18.1875 L 19.046875 -18.1875 L 19.046875 -15.640625 L 2.84375 -15.640625 Z M 2.84375 -18.1875 "/></g></g></g><g fill="#ffffff" fill-opacity="1"><g transform="translate(414.482542, 387.564647)"><g><path d="M 16.203125 0.5625 C 14.421875 0.5625 12.722656 0.191406 11.109375 -0.546875 C 9.503906 -1.285156 8.082031 -2.285156 6.84375 -3.546875 C 5.613281 -4.816406 4.640625 -6.3125 3.921875 -8.03125 C 3.203125 -9.757812 2.84375 -11.628906 2.84375 -13.640625 C 2.84375 -15.617188 3.203125 -17.476562 3.921875 -19.21875 C 4.640625 -20.957031 5.613281 -22.460938 6.84375 -23.734375 C 8.082031 -25.003906 9.503906 -26.007812 11.109375 -26.75 C 12.722656 -27.488281 14.421875 -27.859375 16.203125 -27.859375 C 17.984375 -27.859375 19.546875 -27.5625 20.890625 -26.96875 C 22.242188 -26.382812 23.375 -25.734375 24.28125 -25.015625 C 25.34375 -24.179688 26.253906 -23.234375 27.015625 -22.171875 L 25.015625 -20.46875 C 24.453125 -21.375 23.734375 -22.171875 22.859375 -22.859375 C 22.097656 -23.460938 21.164062 -24.019531 20.0625 -24.53125 C 18.96875 -25.039062 17.679688 -25.296875 16.203125 -25.296875 C 14.765625 -25.296875 13.398438 -24.992188 12.109375 -24.390625 C 10.816406 -23.785156 9.671875 -22.960938 8.671875 -21.921875 C 7.671875 -20.878906 6.875 -19.644531 6.28125 -18.21875 C 5.695312 -16.800781 5.40625 -15.273438 5.40625 -13.640625 C 5.40625 -12.015625 5.695312 -10.488281 6.28125 -9.0625 C 6.875 -7.644531 7.671875 -6.414062 8.671875 -5.375 C 9.671875 -4.332031 10.816406 -3.503906 12.109375 -2.890625 C 13.398438 -2.285156 14.765625 -1.984375 16.203125 -1.984375 C 17.679688 -1.984375 18.96875 -2.226562 20.0625 -2.71875 C 21.164062 -3.21875 22.097656 -3.769531 22.859375 -4.375 C 23.734375 -5.0625 24.453125 -5.878906 25.015625 -6.828125 L 27.015625 -5.125 C 26.253906 -4.0625 25.34375 -3.113281 24.28125 -2.28125 C 23.375 -1.550781 22.242188 -0.894531 20.890625 -0.3125 C 19.546875 0.269531 17.984375 0.5625 16.203125 0.5625 Z M 16.203125 0.5625 "/></g></g></g><g fill="#ffffff" fill-opacity="1"><g transform="translate(443.760277, 387.564647)"><g><path d="M 16.484375 0.5625 C 14.628906 0.5625 12.875 0.191406 11.21875 -0.546875 C 9.570312 -1.285156 8.125 -2.285156 6.875 -3.546875 C 5.625 -4.816406 4.640625 -6.3125 3.921875 -8.03125 C 3.203125 -9.757812 2.84375 -11.628906 2.84375 -13.640625 C 2.84375 -15.617188 3.203125 -17.476562 3.921875 -19.21875 C 4.640625 -20.957031 5.625 -22.460938 6.875 -23.734375 C 8.125 -25.003906 9.570312 -26.007812 11.21875 -26.75 C 12.875 -27.488281 14.628906 -27.859375 16.484375 -27.859375 C 18.347656 -27.859375 20.101562 -27.488281 21.75 -26.75 C 23.394531 -26.007812 24.84375 -25.003906 26.09375 -23.734375 C 27.34375 -22.460938 28.328125 -20.957031 29.046875 -19.21875 C 29.773438 -17.476562 30.140625 -15.617188 30.140625 -13.640625 C 30.140625 -11.628906 29.773438 -9.757812 29.046875 -8.03125 C 28.328125 -6.3125 27.34375 -4.816406 26.09375 -3.546875 C 24.84375 -2.285156 23.394531 -1.285156 21.75 -0.546875 C 20.101562 0.191406 18.347656 0.5625 16.484375 0.5625 Z M 16.484375 -1.984375 C 17.960938 -1.984375 19.375 -2.285156 20.71875 -2.890625 C 22.070312 -3.503906 23.257812 -4.332031 24.28125 -5.375 C 25.300781 -6.414062 26.101562 -7.644531 26.6875 -9.0625 C 27.28125 -10.488281 27.578125 -12.015625 27.578125 -13.640625 C 27.578125 -15.273438 27.28125 -16.800781 26.6875 -18.21875 C 26.101562 -19.644531 25.300781 -20.878906 24.28125 -21.921875 C 23.257812 -22.960938 22.070312 -23.785156 20.71875 -24.390625 C 19.375 -24.992188 17.960938 -25.296875 16.484375 -25.296875 C 15.003906 -25.296875 13.59375 -24.992188 12.25 -24.390625 C 10.90625 -23.785156 9.722656 -22.960938 8.703125 -21.921875 C 7.679688 -20.878906 6.875 -19.644531 6.28125 -18.21875 C 5.695312 -16.800781 5.40625 -15.273438 5.40625 -13.640625 C 5.40625 -12.015625 5.695312 -10.488281 6.28125 -9.0625 C 6.875 -7.644531 7.679688 -6.414062 8.703125 -5.375 C 9.722656 -4.332031 10.90625 -3.503906 12.25 -2.890625 C 13.59375 -2.285156 15.003906 -1.984375 16.484375 -1.984375 Z M 16.484375 -1.984375 "/></g></g></g><g fill="#ffffff" fill-opacity="1"><g transform="translate(476.733258, 387.564647)"><g><path d="M 4.828125 -27.296875 L 7.390625 -27.296875 L 7.390625 -22.75 C 7.878906 -23.695312 8.503906 -24.546875 9.265625 -25.296875 C 9.910156 -25.941406 10.753906 -26.53125 11.796875 -27.0625 C 12.835938 -27.59375 14.117188 -27.859375 15.640625 -27.859375 C 17.265625 -27.859375 18.644531 -27.523438 19.78125 -26.859375 C 20.925781 -26.203125 21.875 -25.492188 22.625 -24.734375 C 23.5 -23.785156 24.203125 -22.742188 24.734375 -21.609375 C 25.222656 -22.742188 25.90625 -23.785156 26.78125 -24.734375 C 27.539062 -25.492188 28.5 -26.203125 29.65625 -26.859375 C 30.8125 -27.523438 32.296875 -27.859375 34.109375 -27.859375 C 35.515625 -27.859375 36.84375 -27.582031 38.09375 -27.03125 C 39.34375 -26.488281 40.429688 -25.710938 41.359375 -24.703125 C 42.296875 -23.703125 43.023438 -22.476562 43.546875 -21.03125 C 44.078125 -19.59375 44.34375 -17.984375 44.34375 -16.203125 L 44.34375 0 L 41.796875 0 L 41.796875 -16.203125 C 41.796875 -17.609375 41.59375 -18.878906 41.1875 -20.015625 C 40.789062 -21.148438 40.242188 -22.101562 39.546875 -22.875 C 38.847656 -23.65625 38.03125 -24.253906 37.09375 -24.671875 C 36.164062 -25.085938 35.171875 -25.296875 34.109375 -25.296875 C 32.972656 -25.296875 31.898438 -25.066406 30.890625 -24.609375 C 29.890625 -24.160156 29.019531 -23.507812 28.28125 -22.65625 C 27.539062 -21.800781 26.953125 -20.757812 26.515625 -19.53125 C 26.085938 -18.300781 25.875 -16.910156 25.875 -15.359375 L 25.875 0 L 23.3125 0 L 23.3125 -16.203125 C 23.3125 -17.609375 23.113281 -18.878906 22.71875 -20.015625 C 22.320312 -21.148438 21.769531 -22.101562 21.0625 -22.875 C 20.363281 -23.65625 19.550781 -24.253906 18.625 -24.671875 C 17.695312 -25.085938 16.703125 -25.296875 15.640625 -25.296875 C 14.503906 -25.296875 13.429688 -25.066406 12.421875 -24.609375 C 11.421875 -24.160156 10.550781 -23.507812 9.8125 -22.65625 C 9.070312 -21.800781 8.484375 -20.757812 8.046875 -19.53125 C 7.609375 -18.300781 7.390625 -16.910156 7.390625 -15.359375 L 7.390625 0 L 4.828125 0 Z M 4.828125 -27.296875 "/></g></g></g><g fill="#ffffff" fill-opacity="1"><g transform="translate(525.624245, 387.564647)"><g><path d="M 4.828125 -27.296875 L 7.390625 -27.296875 L 7.390625 -22.75 C 7.878906 -23.695312 8.503906 -24.546875 9.265625 -25.296875 C 9.910156 -25.941406 10.753906 -26.53125 11.796875 -27.0625 C 12.835938 -27.59375 14.117188 -27.859375 15.640625 -27.859375 C 17.265625 -27.859375 18.644531 -27.523438 19.78125 -26.859375 C 20.925781 -26.203125 21.875 -25.492188 22.625 -24.734375 C 23.5 -23.785156 24.203125 -22.742188 24.734375 -21.609375 C 25.222656 -22.742188 25.90625 -23.785156 26.78125 -24.734375 C 27.539062 -25.492188 28.5 -26.203125 29.65625 -26.859375 C 30.8125 -27.523438 32.296875 -27.859375 34.109375 -27.859375 C 35.515625 -27.859375 36.84375 -27.582031 38.09375 -27.03125 C 39.34375 -26.488281 40.429688 -25.710938 41.359375 -24.703125 C 42.296875 -23.703125 43.023438 -22.476562 43.546875 -21.03125 C 44.078125 -19.59375 44.34375 -17.984375 44.34375 -16.203125 L 44.34375 0 L 41.796875 0 L 41.796875 -16.203125 C 41.796875 -17.609375 41.59375 -18.878906 41.1875 -20.015625 C 40.789062 -21.148438 40.242188 -22.101562 39.546875 -22.875 C 38.847656 -23.65625 38.03125 -24.253906 37.09375 -24.671875 C 36.164062 -25.085938 35.171875 -25.296875 34.109375 -25.296875 C 32.972656 -25.296875 31.898438 -25.066406 30.890625 -24.609375 C 29.890625 -24.160156 29.019531 -23.507812 28.28125 -22.65625 C 27.539062 -21.800781 26.953125 -20.757812 26.515625 -19.53125 C 26.085938 -18.300781 25.875 -16.910156 25.875 -15.359375 L 25.875 0 L 23.3125 0 L 23.3125 -16.203125 C 23.3125 -17.609375 23.113281 -18.878906 22.71875 -20.015625 C 22.320312 -21.148438 21.769531 -22.101562 21.0625 -22.875 C 20.363281 -23.65625 19.550781 -24.253906 18.625 -24.671875 C 17.695312 -25.085938 16.703125 -25.296875 15.640625 -25.296875 C 14.503906 -25.296875 13.429688 -25.066406 12.421875 -24.609375 C 11.421875 -24.160156 10.550781 -23.507812 9.8125 -22.65625 C 9.070312 -21.800781 8.484375 -20.757812 8.046875 -19.53125 C 7.609375 -18.300781 7.390625 -16.910156 7.390625 -15.359375 L 7.390625 0 L 4.828125 0 Z M 4.828125 -27.296875 "/></g></g></g><g fill="#ffffff" fill-opacity="1"><g transform="translate(574.515231, 387.564647)"><g><path d="M 16.203125 0.5625 C 14.421875 0.5625 12.722656 0.191406 11.109375 -0.546875 C 9.503906 -1.285156 8.082031 -2.285156 6.84375 -3.546875 C 5.613281 -4.816406 4.640625 -6.3125 3.921875 -8.03125 C 3.203125 -9.757812 2.84375 -11.628906 2.84375 -13.640625 C 2.84375 -15.691406 3.191406 -17.585938 3.890625 -19.328125 C 4.597656 -21.078125 5.546875 -22.582031 6.734375 -23.84375 C 7.929688 -25.113281 9.316406 -26.097656 10.890625 -26.796875 C 12.460938 -27.503906 14.140625 -27.859375 15.921875 -27.859375 C 17.628906 -27.859375 19.238281 -27.515625 20.75 -26.828125 C 22.269531 -26.148438 23.597656 -25.1875 24.734375 -23.9375 C 25.867188 -22.6875 26.769531 -21.1875 27.4375 -19.4375 C 28.101562 -17.695312 28.4375 -15.765625 28.4375 -13.640625 L 28.4375 -12.515625 L 5.40625 -12.515625 C 5.550781 -11.035156 5.925781 -9.648438 6.53125 -8.359375 C 7.144531 -7.066406 7.929688 -5.945312 8.890625 -5 C 9.859375 -4.050781 10.957031 -3.3125 12.1875 -2.78125 C 13.425781 -2.25 14.765625 -1.984375 16.203125 -1.984375 C 17.679688 -1.984375 18.96875 -2.226562 20.0625 -2.71875 C 21.164062 -3.21875 22.097656 -3.769531 22.859375 -4.375 C 23.734375 -5.0625 24.453125 -5.878906 25.015625 -6.828125 L 27.015625 -5.125 C 26.253906 -4.0625 25.34375 -3.113281 24.28125 -2.28125 C 23.375 -1.550781 22.242188 -0.894531 20.890625 -0.3125 C 19.546875 0.269531 17.984375 0.5625 16.203125 0.5625 Z M 25.875 -15.0625 C 25.570312 -18.207031 24.519531 -20.695312 22.71875 -22.53125 C 20.914062 -24.375 18.648438 -25.296875 15.921875 -25.296875 C 14.554688 -25.296875 13.253906 -25.007812 12.015625 -24.4375 C 10.785156 -23.875 9.6875 -23.128906 8.71875 -22.203125 C 7.757812 -21.273438 6.984375 -20.191406 6.390625 -18.953125 C 5.804688 -17.722656 5.476562 -16.425781 5.40625 -15.0625 Z M 25.875 -15.0625 "/></g></g></g><g fill="#ffffff" fill-opacity="1"><g transform="translate(605.782725, 387.564647)"><g><path d="M 4.828125 -27.296875 L 7.390625 -27.296875 L 7.390625 -22.453125 C 7.960938 -23.441406 8.722656 -24.332031 9.671875 -25.125 C 10.421875 -25.8125 11.410156 -26.4375 12.640625 -27 C 13.878906 -27.570312 15.351562 -27.859375 17.0625 -27.859375 L 18.1875 -27.859375 L 18.1875 -25.296875 L 17.0625 -25.296875 C 15.695312 -25.296875 14.425781 -25.039062 13.25 -24.53125 C 12.070312 -24.019531 11.046875 -23.328125 10.171875 -22.453125 C 9.304688 -21.585938 8.625 -20.535156 8.125 -19.296875 C 7.632812 -18.066406 7.390625 -16.753906 7.390625 -15.359375 L 7.390625 0 L 4.828125 0 Z M 4.828125 -27.296875 "/></g></g></g><g fill="#ffffff" fill-opacity="1"><g transform="translate(624.827476, 387.564647)"><g><path d="M 16.203125 0.5625 C 14.421875 0.5625 12.722656 0.191406 11.109375 -0.546875 C 9.503906 -1.285156 8.082031 -2.285156 6.84375 -3.546875 C 5.613281 -4.816406 4.640625 -6.3125 3.921875 -8.03125 C 3.203125 -9.757812 2.84375 -11.628906 2.84375 -13.640625 C 2.84375 -15.617188 3.203125 -17.476562 3.921875 -19.21875 C 4.640625 -20.957031 5.613281 -22.460938 6.84375 -23.734375 C 8.082031 -25.003906 9.503906 -26.007812 11.109375 -26.75 C 12.722656 -27.488281 14.421875 -27.859375 16.203125 -27.859375 C 17.984375 -27.859375 19.546875 -27.5625 20.890625 -26.96875 C 22.242188 -26.382812 23.375 -25.734375 24.28125 -25.015625 C 25.34375 -24.179688 26.253906 -23.234375 27.015625 -22.171875 L 25.015625 -20.46875 C 24.453125 -21.375 23.734375 -22.171875 22.859375 -22.859375 C 22.097656 -23.460938 21.164062 -24.019531 20.0625 -24.53125 C 18.96875 -25.039062 17.679688 -25.296875 16.203125 -25.296875 C 14.765625 -25.296875 13.398438 -24.992188 12.109375 -24.390625 C 10.816406 -23.785156 9.671875 -22.960938 8.671875 -21.921875 C 7.671875 -20.878906 6.875 -19.644531 6.28125 -18.21875 C 5.695312 -16.800781 5.40625 -15.273438 5.40625 -13.640625 C 5.40625 -12.015625 5.695312 -10.488281 6.28125 -9.0625 C 6.875 -7.644531 7.671875 -6.414062 8.671875 -5.375 C 9.671875 -4.332031 10.816406 -3.503906 12.109375 -2.890625 C 13.398438 -2.285156 14.765625 -1.984375 16.203125 -1.984375 C 17.679688 -1.984375 18.96875 -2.226562 20.0625 -2.71875 C 21.164062 -3.21875 22.097656 -3.769531 22.859375 -4.375 C 23.734375 -5.0625 24.453125 -5.878906 25.015625 -6.828125 L 27.015625 -5.125 C 26.253906 -4.0625 25.34375 -3.113281 24.28125 -2.28125 C 23.375 -1.550781 22.242188 -0.894531 20.890625 -0.3125 C 19.546875 0.269531 17.984375 0.5625 16.203125 0.5625 Z M 16.203125 0.5625 "/></g></g></g><g fill="#ffffff" fill-opacity="1"><g transform="translate(654.105211, 387.564647)"><g><path d="M 16.203125 0.5625 C 14.421875 0.5625 12.722656 0.191406 11.109375 -0.546875 C 9.503906 -1.285156 8.082031 -2.285156 6.84375 -3.546875 C 5.613281 -4.816406 4.640625 -6.3125 3.921875 -8.03125 C 3.203125 -9.757812 2.84375 -11.628906 2.84375 -13.640625 C 2.84375 -15.691406 3.191406 -17.585938 3.890625 -19.328125 C 4.597656 -21.078125 5.546875 -22.582031 6.734375 -23.84375 C 7.929688 -25.113281 9.316406 -26.097656 10.890625 -26.796875 C 12.460938 -27.503906 14.140625 -27.859375 15.921875 -27.859375 C 17.628906 -27.859375 19.238281 -27.515625 20.75 -26.828125 C 22.269531 -26.148438 23.597656 -25.1875 24.734375 -23.9375 C 25.867188 -22.6875 26.769531 -21.1875 27.4375 -19.4375 C 28.101562 -17.695312 28.4375 -15.765625 28.4375 -13.640625 L 28.4375 -12.515625 L 5.40625 -12.515625 C 5.550781 -11.035156 5.925781 -9.648438 6.53125 -8.359375 C 7.144531 -7.066406 7.929688 -5.945312 8.890625 -5 C 9.859375 -4.050781 10.957031 -3.3125 12.1875 -2.78125 C 13.425781 -2.25 14.765625 -1.984375 16.203125 -1.984375 C 17.679688 -1.984375 18.96875 -2.226562 20.0625 -2.71875 C 21.164062 -3.21875 22.097656 -3.769531 22.859375 -4.375 C 23.734375 -5.0625 24.453125 -5.878906 25.015625 -6.828125 L 27.015625 -5.125 C 26.253906 -4.0625 25.34375 -3.113281 24.28125 -2.28125 C 23.375 -1.550781 22.242188 -0.894531 20.890625 -0.3125 C 19.546875 0.269531 17.984375 0.5625 16.203125 0.5625 Z M 25.875 -15.0625 C 25.570312 -18.207031 24.519531 -20.695312 22.71875 -22.53125 C 20.914062 -24.375 18.648438 -25.296875 15.921875 -25.296875 C 14.554688 -25.296875 13.253906 -25.007812 12.015625 -24.4375 C 10.785156 -23.875 9.6875 -23.128906 8.71875 -22.203125 C 7.757812 -21.273438 6.984375 -20.191406 6.390625 -18.953125 C 5.804688 -17.722656 5.476562 -16.425781 5.40625 -15.0625 Z M 25.875 -15.0625 "/></g></g></g><g fill="#ffffff" fill-opacity="1"><g transform="translate(685.375901, 387.564647)"><g/></g></g><g fill="#ffffff" fill-opacity="1"><g transform="translate(361.327807, 467.03957)"><g><path d="M 4.828125 -27.296875 L 7.390625 -27.296875 L 7.390625 -21.890625 C 8.078125 -22.992188 8.910156 -23.976562 9.890625 -24.84375 C 10.765625 -25.601562 11.851562 -26.296875 13.15625 -26.921875 C 14.46875 -27.546875 16.050781 -27.859375 17.90625 -27.859375 C 19.613281 -27.859375 21.242188 -27.503906 22.796875 -26.796875 C 24.347656 -26.097656 25.703125 -25.113281 26.859375 -23.84375 C 28.015625 -22.582031 28.941406 -21.078125 29.640625 -19.328125 C 30.347656 -17.585938 30.703125 -15.691406 30.703125 -13.640625 C 30.703125 -11.597656 30.347656 -9.703125 29.640625 -7.953125 C 28.941406 -6.210938 28.015625 -4.707031 26.859375 -3.4375 C 25.703125 -2.164062 24.347656 -1.179688 22.796875 -0.484375 C 21.242188 0.210938 19.613281 0.5625 17.90625 0.5625 C 16.050781 0.5625 14.46875 0.257812 13.15625 -0.34375 C 11.851562 -0.945312 10.765625 -1.628906 9.890625 -2.390625 C 8.910156 -3.265625 8.078125 -4.269531 7.390625 -5.40625 L 7.390625 11.9375 L 4.828125 11.9375 Z M 17.90625 -1.984375 C 19.269531 -1.984375 20.566406 -2.269531 21.796875 -2.84375 C 23.035156 -3.414062 24.117188 -4.222656 25.046875 -5.265625 C 25.972656 -6.304688 26.71875 -7.535156 27.28125 -8.953125 C 27.851562 -10.378906 28.140625 -11.941406 28.140625 -13.640625 C 28.140625 -15.347656 27.851562 -16.910156 27.28125 -18.328125 C 26.71875 -19.753906 25.972656 -20.988281 25.046875 -22.03125 C 24.117188 -23.070312 23.035156 -23.875 21.796875 -24.4375 C 20.566406 -25.007812 19.269531 -25.296875 17.90625 -25.296875 C 16.46875 -25.296875 15.113281 -25.007812 13.84375 -24.4375 C 12.570312 -23.875 11.460938 -23.070312 10.515625 -22.03125 C 9.566406 -20.988281 8.804688 -19.753906 8.234375 -18.328125 C 7.671875 -16.910156 7.390625 -15.347656 7.390625 -13.640625 C 7.390625 -11.941406 7.671875 -10.378906 8.234375 -8.953125 C 8.804688 -7.535156 9.566406 -6.304688 10.515625 -5.265625 C 11.460938 -4.222656 12.570312 -3.414062 13.84375 -2.84375 C 15.113281 -2.269531 16.46875 -1.984375 17.90625 -1.984375 Z M 17.90625 -1.984375 "/></g></g></g><g fill="#ffffff" fill-opacity="1"><g transform="translate(394.869289, 467.03957)"><g><path d="M 5.125 -39.796875 L 7.671875 -39.796875 L 7.671875 0 L 5.125 0 Z M 5.125 -39.796875 "/></g></g></g><g fill="#ffffff" fill-opacity="1"><g transform="translate(407.660533, 467.03957)"><g><path d="M 11.65625 0.5625 C 10.289062 0.5625 9.046875 0.351562 7.921875 -0.0625 C 6.804688 -0.476562 5.847656 -1.046875 5.046875 -1.765625 C 4.253906 -2.484375 3.640625 -3.304688 3.203125 -4.234375 C 2.773438 -5.160156 2.5625 -6.117188 2.5625 -7.109375 C 2.5625 -9.265625 3.289062 -11.070312 4.75 -12.53125 C 6.207031 -14 8.222656 -14.941406 10.796875 -15.359375 L 21.609375 -17.0625 C 21.609375 -19.632812 20.894531 -21.648438 19.46875 -23.109375 C 18.050781 -24.566406 16.207031 -25.296875 13.9375 -25.296875 C 12.644531 -25.296875 11.503906 -25.085938 10.515625 -24.671875 C 9.535156 -24.253906 8.703125 -23.800781 8.015625 -23.3125 C 7.222656 -22.707031 6.539062 -22.046875 5.96875 -21.328125 L 4.265625 -23.03125 C 4.941406 -23.9375 5.773438 -24.734375 6.765625 -25.421875 C 7.597656 -26.023438 8.601562 -26.582031 9.78125 -27.09375 C 10.957031 -27.601562 12.34375 -27.859375 13.9375 -27.859375 C 15.40625 -27.859375 16.765625 -27.601562 18.015625 -27.09375 C 19.273438 -26.582031 20.359375 -25.851562 21.265625 -24.90625 C 22.171875 -23.957031 22.878906 -22.816406 23.390625 -21.484375 C 23.910156 -20.160156 24.171875 -18.6875 24.171875 -17.0625 L 24.171875 0 L 21.609375 0 L 21.609375 -4.828125 C 21.003906 -3.804688 20.226562 -2.898438 19.28125 -2.109375 C 18.476562 -1.421875 17.453125 -0.800781 16.203125 -0.25 C 14.953125 0.289062 13.4375 0.5625 11.65625 0.5625 Z M 11.65625 -1.984375 C 13.0625 -1.984375 14.378906 -2.238281 15.609375 -2.75 C 16.835938 -3.269531 17.890625 -3.960938 18.765625 -4.828125 C 19.640625 -5.703125 20.332031 -6.742188 20.84375 -7.953125 C 21.351562 -9.171875 21.609375 -10.5 21.609375 -11.9375 L 21.609375 -14.5 L 11.375 -12.796875 C 9.207031 -12.453125 7.625 -11.773438 6.625 -10.765625 C 5.625 -9.765625 5.125 -8.546875 5.125 -7.109375 C 5.125 -6.460938 5.273438 -5.835938 5.578125 -5.234375 C 5.878906 -4.628906 6.3125 -4.078125 6.875 -3.578125 C 7.445312 -3.085938 8.140625 -2.695312 8.953125 -2.40625 C 9.765625 -2.125 10.664062 -1.984375 11.65625 -1.984375 Z M 11.65625 -1.984375 "/></g></g></g><g fill="#ffffff" fill-opacity="1"><g transform="translate(436.369767, 467.03957)"><g><path d="M 13.9375 0.5625 C 11.769531 0.5625 10.085938 -0.0625 8.890625 -1.3125 C 7.703125 -2.5625 7.109375 -4.398438 7.109375 -6.828125 L 7.109375 -24.734375 L 1.703125 -24.734375 L 1.703125 -27.296875 L 5.40625 -27.296875 C 5.96875 -27.296875 6.4375 -27.492188 6.8125 -27.890625 C 7.195312 -28.285156 7.390625 -28.84375 7.390625 -29.5625 L 7.390625 -36.390625 L 9.671875 -36.390625 L 9.671875 -27.296875 L 15.921875 -27.296875 L 15.921875 -24.734375 L 9.671875 -24.734375 L 9.671875 -6.828125 C 9.671875 -5.234375 10.054688 -4.023438 10.828125 -3.203125 C 11.609375 -2.390625 12.644531 -1.984375 13.9375 -1.984375 C 14.425781 -1.984375 14.894531 -2.019531 15.34375 -2.09375 C 15.800781 -2.175781 16.203125 -2.273438 16.546875 -2.390625 C 16.960938 -2.535156 17.320312 -2.6875 17.625 -2.84375 L 17.625 -0.28125 C 17.320312 -0.132812 16.960938 0.015625 16.546875 0.171875 C 16.203125 0.285156 15.800781 0.378906 15.34375 0.453125 C 14.894531 0.523438 14.425781 0.5625 13.9375 0.5625 Z M 13.9375 0.5625 "/></g></g></g><g fill="#ffffff" fill-opacity="1"><g transform="translate(456.267262, 467.03957)"><g><path d="M 6.25 -24.734375 L 1.703125 -24.734375 L 1.703125 -27.296875 L 6.25 -27.296875 L 6.25 -32.984375 C 6.25 -35.410156 6.847656 -37.25 8.046875 -38.5 C 9.242188 -39.75 10.921875 -40.375 13.078125 -40.375 C 13.566406 -40.375 14.039062 -40.328125 14.5 -40.234375 C 14.957031 -40.140625 15.351562 -40.035156 15.6875 -39.921875 C 16.101562 -39.765625 16.46875 -39.628906 16.78125 -39.515625 L 16.78125 -36.953125 C 16.46875 -37.066406 16.101562 -37.203125 15.6875 -37.359375 C 15.351562 -37.472656 14.957031 -37.578125 14.5 -37.671875 C 14.039062 -37.765625 13.566406 -37.8125 13.078125 -37.8125 C 11.785156 -37.8125 10.75 -37.398438 9.96875 -36.578125 C 9.195312 -35.765625 8.8125 -34.566406 8.8125 -32.984375 L 8.8125 -27.296875 L 15.640625 -27.296875 L 15.640625 -24.734375 L 8.8125 -24.734375 L 8.8125 0 L 6.25 0 Z M 6.25 -24.734375 "/></g></g></g><g fill="#ffffff" fill-opacity="1"><g transform="translate(473.606511, 467.03957)"><g><path d="M 16.484375 0.5625 C 14.628906 0.5625 12.875 0.191406 11.21875 -0.546875 C 9.570312 -1.285156 8.125 -2.285156 6.875 -3.546875 C 5.625 -4.816406 4.640625 -6.3125 3.921875 -8.03125 C 3.203125 -9.757812 2.84375 -11.628906 2.84375 -13.640625 C 2.84375 -15.617188 3.203125 -17.476562 3.921875 -19.21875 C 4.640625 -20.957031 5.625 -22.460938 6.875 -23.734375 C 8.125 -25.003906 9.570312 -26.007812 11.21875 -26.75 C 12.875 -27.488281 14.628906 -27.859375 16.484375 -27.859375 C 18.347656 -27.859375 20.101562 -27.488281 21.75 -26.75 C 23.394531 -26.007812 24.84375 -25.003906 26.09375 -23.734375 C 27.34375 -22.460938 28.328125 -20.957031 29.046875 -19.21875 C 29.773438 -17.476562 30.140625 -15.617188 30.140625 -13.640625 C 30.140625 -11.628906 29.773438 -9.757812 29.046875 -8.03125 C 28.328125 -6.3125 27.34375 -4.816406 26.09375 -3.546875 C 24.84375 -2.285156 23.394531 -1.285156 21.75 -0.546875 C 20.101562 0.191406 18.347656 0.5625 16.484375 0.5625 Z M 16.484375 -1.984375 C 17.960938 -1.984375 19.375 -2.285156 20.71875 -2.890625 C 22.070312 -3.503906 23.257812 -4.332031 24.28125 -5.375 C 25.300781 -6.414062 26.101562 -7.644531 26.6875 -9.0625 C 27.28125 -10.488281 27.578125 -12.015625 27.578125 -13.640625 C 27.578125 -15.273438 27.28125 -16.800781 26.6875 -18.21875 C 26.101562 -19.644531 25.300781 -20.878906 24.28125 -21.921875 C 23.257812 -22.960938 22.070312 -23.785156 20.71875 -24.390625 C 19.375 -24.992188 17.960938 -25.296875 16.484375 -25.296875 C 15.003906 -25.296875 13.59375 -24.992188 12.25 -24.390625 C 10.90625 -23.785156 9.722656 -22.960938 8.703125 -21.921875 C 7.679688 -20.878906 6.875 -19.644531 6.28125 -18.21875 C 5.695312 -16.800781 5.40625 -15.273438 5.40625 -13.640625 C 5.40625 -12.015625 5.695312 -10.488281 6.28125 -9.0625 C 6.875 -7.644531 7.679688 -6.414062 8.703125 -5.375 C 9.722656 -4.332031 10.90625 -3.503906 12.25 -2.890625 C 13.59375 -2.285156 15.003906 -1.984375 16.484375 -1.984375 Z M 16.484375 -1.984375 "/></g></g></g><g fill="#ffffff" fill-opacity="1"><g transform="translate(506.579492, 467.03957)"><g><path d="M 4.828125 -27.296875 L 7.390625 -27.296875 L 7.390625 -22.453125 C 7.960938 -23.441406 8.722656 -24.332031 9.671875 -25.125 C 10.421875 -25.8125 11.410156 -26.4375 12.640625 -27 C 13.878906 -27.570312 15.351562 -27.859375 17.0625 -27.859375 L 18.1875 -27.859375 L 18.1875 -25.296875 L 17.0625 -25.296875 C 15.695312 -25.296875 14.425781 -25.039062 13.25 -24.53125 C 12.070312 -24.019531 11.046875 -23.328125 10.171875 -22.453125 C 9.304688 -21.585938 8.625 -20.535156 8.125 -19.296875 C 7.632812 -18.066406 7.390625 -16.753906 7.390625 -15.359375 L 7.390625 0 L 4.828125 0 Z M 4.828125 -27.296875 "/></g></g></g><g fill="#ffffff" fill-opacity="1"><g transform="translate(525.624229, 467.03957)"><g><path d="M 4.828125 -27.296875 L 7.390625 -27.296875 L 7.390625 -22.75 C 7.878906 -23.695312 8.503906 -24.546875 9.265625 -25.296875 C 9.910156 -25.941406 10.753906 -26.53125 11.796875 -27.0625 C 12.835938 -27.59375 14.117188 -27.859375 15.640625 -27.859375 C 17.265625 -27.859375 18.644531 -27.523438 19.78125 -26.859375 C 20.925781 -26.203125 21.875 -25.492188 22.625 -24.734375 C 23.5 -23.785156 24.203125 -22.742188 24.734375 -21.609375 C 25.222656 -22.742188 25.90625 -23.785156 26.78125 -24.734375 C 27.539062 -25.492188 28.5 -26.203125 29.65625 -26.859375 C 30.8125 -27.523438 32.296875 -27.859375 34.109375 -27.859375 C 35.515625 -27.859375 36.84375 -27.582031 38.09375 -27.03125 C 39.34375 -26.488281 40.429688 -25.710938 41.359375 -24.703125 C 42.296875 -23.703125 43.023438 -22.476562 43.546875 -21.03125 C 44.078125 -19.59375 44.34375 -17.984375 44.34375 -16.203125 L 44.34375 0 L 41.796875 0 L 41.796875 -16.203125 C 41.796875 -17.609375 41.59375 -18.878906 41.1875 -20.015625 C 40.789062 -21.148438 40.242188 -22.101562 39.546875 -22.875 C 38.847656 -23.65625 38.03125 -24.253906 37.09375 -24.671875 C 36.164062 -25.085938 35.171875 -25.296875 34.109375 -25.296875 C 32.972656 -25.296875 31.898438 -25.066406 30.890625 -24.609375 C 29.890625 -24.160156 29.019531 -23.507812 28.28125 -22.65625 C 27.539062 -21.800781 26.953125 -20.757812 26.515625 -19.53125 C 26.085938 -18.300781 25.875 -16.910156 25.875 -15.359375 L 25.875 0 L 23.3125 0 L 23.3125 -16.203125 C 23.3125 -17.609375 23.113281 -18.878906 22.71875 -20.015625 C 22.320312 -21.148438 21.769531 -22.101562 21.0625 -22.875 C 20.363281 -23.65625 19.550781 -24.253906 18.625 -24.671875 C 17.695312 -25.085938 16.703125 -25.296875 15.640625 -25.296875 C 14.503906 -25.296875 13.429688 -25.066406 12.421875 -24.609375 C 11.421875 -24.160156 10.550781 -23.507812 9.8125 -22.65625 C 9.070312 -21.800781 8.484375 -20.757812 8.046875 -19.53125 C 7.609375 -18.300781 7.390625 -16.910156 7.390625 -15.359375 L 7.390625 0 L 4.828125 0 Z M 4.828125 -27.296875 "/></g></g></g></svg>