<svg xmlns="http://www.w3.org/2000/svg" xmlns:xlink="http://www.w3.org/1999/xlink" width="1080" zoomAndPan="magnify" viewBox="0 0 810 809.999993" height="1080" preserveAspectRatio="xMidYMid meet" version="1.0"><defs><g/></defs><g fill="#e4e2dd" fill-opacity="1"><g transform="translate(188.552425, 562.090341)"><g><path d="M 123.308594 4.308594 C 102.128906 4.308594 82.925781 0.179688 65.691406 -8.078125 C 48.460938 -16.332031 34.910156 -28.449219 25.039062 -44.421875 C 15.167969 -60.398438 10.230469 -79.695312 10.230469 -102.308594 L 10.230469 -218.082031 L 101.230469 -218.082031 L 101.230469 -107.695312 C 101.230469 -99.4375 102.9375 -92.886719 106.347656 -88.039062 C 109.757812 -83.195312 115.054688 -80.769531 122.234375 -80.769531 C 129.054688 -80.769531 134.167969 -83.015625 137.578125 -87.5 C 140.988281 -91.988281 142.695312 -98.359375 142.695312 -106.617188 L 142.695312 -462.546875 L 235.851562 -462.546875 L 235.851562 -115.769531 C 235.851562 -91.71875 231.09375 -70.628906 221.582031 -52.5 C 212.066406 -34.371094 198.785156 -20.371094 181.734375 -10.5 C 164.683594 -0.628906 145.207031 4.308594 123.308594 4.308594 Z M 123.308594 4.308594 "/></g></g></g><g fill="#e4e2dd" fill-opacity="1"><g transform="translate(314.016288, 707.318073)"><g><path d="M 159.660156 5.007812 C 109.570312 5.007812 73.464844 -7.722656 51.34375 -33.183594 C 29.21875 -58.648438 18.15625 -97.675781 18.15625 -150.269531 L 18.15625 -291.773438 C 18.15625 -331.429688 22.4375 -363.675781 30.992188 -388.511719 C 39.550781 -413.347656 53.949219 -432.027344 74.195312 -444.550781 C 94.441406 -457.070312 122.511719 -463.332031 158.410156 -463.332031 C 197.648438 -463.332031 229.578125 -453.105469 254.207031 -432.652344 C 278.835938 -412.199219 291.148438 -383.605469 291.148438 -346.875 L 291.148438 -276.746094 L 179.699219 -276.746094 L 179.699219 -341.238281 C 179.699219 -353.34375 178.027344 -362.632812 174.6875 -369.101562 C 171.351562 -375.570312 164.878906 -378.804688 155.277344 -378.804688 C 137.332031 -378.804688 128.355469 -366.074219 128.355469 -340.613281 L 128.355469 -118.335938 C 128.355469 -107.902344 130.546875 -99.03125 134.929688 -91.726562 C 139.3125 -84.421875 145.886719 -80.769531 154.652344 -80.769531 C 163.417969 -80.769531 169.992188 -84.316406 174.375 -91.414062 C 178.757812 -98.511719 180.742188 -107.695312 180.324219 -118.964844 L 179.699219 -195.976562 L 291.148438 -195.976562 L 291.148438 -115.832031 C 291.148438 -78.265625 278.9375 -48.734375 254.519531 -27.238281 C 230.101562 -5.738281 198.480469 5.007812 159.660156 5.007812 Z M 159.660156 5.007812 "/></g></g></g></svg>