<svg xmlns="http://www.w3.org/2000/svg" xmlns:xlink="http://www.w3.org/1999/xlink" width="1080" zoomAndPan="magnify" viewBox="0 0 810 809.999993" height="1080" preserveAspectRatio="xMidYMid meet" version="1.0"><defs><filter x="0%" y="0%" width="100%" height="100%" id="c19291e65f"><feColorMatrix values="0 0 0 0 1 0 0 0 0 1 0 0 0 0 1 0 0 0 1 0" color-interpolation-filters="sRGB"/></filter><g/><clipPath id="84c47c7f2b"><path d="M 79.117188 210.246094 L 745 210.246094 L 745 599.753906 L 79.117188 599.753906 Z M 79.117188 210.246094 " clip-rule="nonzero"/></clipPath><clipPath id="4a9fa2899c"><path d="M 117.367188 210.246094 L 706.132812 210.246094 C 716.277344 210.246094 726.007812 214.273438 733.179688 221.449219 C 740.355469 228.621094 744.382812 238.351562 744.382812 248.496094 L 744.382812 561.503906 C 744.382812 571.648438 740.355469 581.378906 733.179688 588.550781 C 726.007812 595.726562 716.277344 599.753906 706.132812 599.753906 L 117.367188 599.753906 C 107.222656 599.753906 97.492188 595.726562 90.320312 588.550781 C 83.144531 581.378906 79.117188 571.648438 79.117188 561.503906 L 79.117188 248.496094 C 79.117188 238.351562 83.144531 228.621094 90.320312 221.449219 C 97.492188 214.273438 107.222656 210.246094 117.367188 210.246094 Z M 117.367188 210.246094 " clip-rule="nonzero"/></clipPath><mask id="d7717473c8"><g filter="url(#c19291e65f)"><rect x="-81" width="972" fill="#000000" y="-80.999999" height="971.999992" fill-opacity="0.3"/></g></mask><clipPath id="d27d9db777"><path d="M 0.601562 0.496094 L 512.734375 0.496094 L 512.734375 389.746094 L 0.601562 389.746094 Z M 0.601562 0.496094 " clip-rule="nonzero"/></clipPath><clipPath id="d785822cae"><rect x="0" width="514" y="0" height="391"/></clipPath><clipPath id="4fa7f6111e"><path d="M 172.234375 333.332031 L 351.484375 333.332031 L 351.484375 469.832031 L 172.234375 469.832031 Z M 172.234375 333.332031 " clip-rule="nonzero"/></clipPath></defs><g clip-path="url(#84c47c7f2b)"><g clip-path="url(#4a9fa2899c)"><path fill="#590d10" d="M 79.117188 210.246094 L 744.023438 210.246094 L 744.023438 599.753906 L 79.117188 599.753906 Z M 79.117188 210.246094 " fill-opacity="1" fill-rule="nonzero"/></g></g><g mask="url(#d7717473c8)"><g transform="matrix(1, 0, 0, 1, 201, 206)"><g clip-path="url(#d785822cae)"><path fill="#e47171" d="M 204.179688 242.667969 L 202.257812 242.667969 L 202.257812 246.875 L 196.871094 246.875 L 196.871094 284.425781 L 202.257812 284.425781 L 202.257812 300.464844 L 204.179688 300.464844 L 204.179688 284.425781 L 209.65625 284.425781 L 209.65625 246.875 L 204.179688 246.875 Z M 204.179688 242.667969 " fill-opacity="1" fill-rule="nonzero"/><path fill="#e47171" d="M 453.867188 97.675781 L 459.300781 97.675781 L 459.300781 148.414062 L 453.867188 148.414062 L 453.867188 152.902344 L 451.957031 152.902344 L 451.957031 148.414062 L 446.527344 148.414062 L 446.527344 97.675781 L 451.957031 97.675781 L 451.957031 78.699219 L 453.867188 78.699219 Z M 357.359375 283.949219 L 362.789062 283.949219 L 362.789062 293.589844 L 364.699219 293.589844 L 364.699219 283.949219 L 370.132812 283.949219 L 370.132812 171.511719 L 357.347656 171.511719 L 357.347656 283.949219 Z M 275.542969 218.128906 L 273.632812 218.128906 L 273.632812 237.105469 L 268.199219 237.105469 L 268.199219 287.84375 L 273.632812 287.84375 L 273.632812 292.070312 L 275.542969 292.070312 L 275.542969 287.84375 L 280.972656 287.84375 L 280.972656 237.105469 L 275.542969 237.105469 Z M 239.875 163.007812 L 237.96875 163.007812 L 237.96875 169.007812 L 232.535156 169.007812 L 232.535156 244.457031 L 237.96875 244.457031 L 237.96875 251.710938 L 239.875 251.710938 L 239.875 244.457031 L 245.308594 244.457031 L 245.308594 169.007812 L 239.875 169.007812 Z M 150.601562 212.445312 L 148.691406 212.445312 L 148.691406 218.246094 L 143.378906 218.246094 L 143.378906 290.097656 L 148.691406 290.097656 L 148.691406 301.136719 L 150.601562 301.136719 L 150.601562 290.097656 L 156.152344 290.097656 L 156.152344 218.246094 L 150.601562 218.246094 Z M 61.5625 250.726562 L 59.652344 250.726562 L 59.652344 260.332031 L 54.21875 260.332031 L 54.21875 334.449219 L 59.652344 334.449219 L 59.652344 339.425781 L 61.5625 339.425781 L 61.5625 334.449219 L 66.996094 334.449219 L 66.996094 260.332031 L 61.5625 260.332031 Z M 61.5625 250.726562 " fill-opacity="1" fill-rule="nonzero"/><g clip-path="url(#d27d9db777)"><path fill="#e6e3e3" d="M 512.792969 54.582031 L 507.359375 54.582031 L 507.359375 75.164062 L 505.449219 75.164062 L 505.449219 54.582031 L 500.019531 54.582031 L 500.019531 5.527344 L 505.449219 5.527344 L 505.449219 0.496094 L 507.359375 0.496094 L 507.359375 5.527344 L 512.792969 5.527344 Z M 489.53125 52.144531 L 487.625 52.144531 L 487.625 54.582031 L 482.179688 54.582031 L 482.179688 90.453125 L 487.613281 90.453125 L 487.613281 101.625 L 489.523438 101.625 L 489.523438 90.453125 L 494.953125 90.453125 L 494.953125 54.582031 L 489.523438 54.582031 L 489.523438 52.144531 Z M 471.695312 85.359375 L 469.785156 85.359375 L 469.785156 90.453125 L 464.351562 90.453125 L 464.351562 148.425781 L 469.785156 148.425781 L 469.785156 160.167969 L 471.695312 160.167969 L 471.695312 148.425781 L 477.128906 148.425781 L 477.128906 90.453125 L 471.695312 90.453125 Z M 436.027344 78.492188 L 434.121094 78.492188 L 434.121094 97.46875 L 428.6875 97.46875 L 428.6875 134.261719 L 434.121094 134.261719 L 434.121094 138.449219 L 436.027344 138.449219 L 436.027344 134.261719 L 441.460938 134.261719 L 441.460938 97.46875 L 436.027344 97.46875 Z M 418.203125 128.875 L 416.292969 128.875 L 416.292969 134.261719 L 410.859375 134.261719 L 410.859375 173.636719 L 416.292969 173.636719 L 416.292969 187.601562 L 418.203125 187.601562 L 418.203125 173.636719 L 423.636719 173.636719 L 423.636719 134.261719 L 418.203125 134.261719 Z M 400.363281 168.832031 L 398.457031 168.832031 L 398.457031 173.636719 L 393.023438 173.636719 L 393.023438 219.429688 L 398.457031 219.429688 L 398.457031 243.351562 L 400.363281 243.351562 L 400.363281 219.429688 L 405.796875 219.429688 L 405.796875 173.636719 L 400.363281 173.636719 Z M 382.535156 212.066406 L 380.628906 212.066406 L 380.628906 219.429688 L 375.195312 219.429688 L 375.195312 283.949219 L 380.628906 283.949219 L 380.628906 289.15625 L 382.535156 289.15625 L 382.535156 283.949219 L 387.96875 283.949219 L 387.96875 219.429688 L 382.535156 219.429688 Z M 346.871094 164.960938 L 344.964844 164.960938 L 344.964844 171.511719 L 339.53125 171.511719 L 339.53125 200.464844 L 352.316406 200.464844 L 352.316406 171.511719 L 346.882812 171.511719 L 346.882812 164.960938 Z M 329.042969 183.394531 L 327.136719 183.394531 L 327.136719 200.464844 L 321.691406 200.464844 L 321.691406 228.082031 L 327.125 228.082031 L 327.125 246.527344 L 329.035156 246.527344 L 329.035156 228.082031 L 334.464844 228.082031 L 334.464844 200.453125 L 329.035156 200.453125 L 329.035156 183.394531 Z M 311.207031 218.996094 L 309.296875 218.996094 L 309.296875 228.082031 L 303.867188 228.082031 L 303.867188 272.878906 L 309.296875 272.878906 L 309.296875 280.359375 L 311.207031 280.359375 L 311.207031 272.878906 L 316.640625 272.878906 L 316.640625 228.082031 L 311.207031 228.082031 Z M 293.378906 251.765625 L 291.472656 251.765625 L 291.472656 272.867188 L 286.039062 272.867188 L 286.039062 287.832031 L 291.472656 287.832031 L 291.472656 303.402344 L 293.378906 303.402344 L 293.378906 287.832031 L 298.8125 287.832031 L 298.8125 272.867188 L 293.378906 272.867188 Z M 257.714844 228.875 L 255.804688 228.875 L 255.804688 237.09375 L 250.375 237.09375 L 250.375 244.445312 L 255.804688 244.445312 L 255.804688 254.238281 L 257.714844 254.238281 L 257.714844 244.457031 L 263.148438 244.457031 L 263.148438 237.105469 L 257.714844 237.105469 Z M 222.050781 150.03125 L 220.140625 150.03125 L 220.140625 169.007812 L 214.707031 169.007812 L 214.707031 284.425781 L 220.140625 284.425781 L 220.140625 286.890625 L 222.050781 286.890625 L 222.050781 284.425781 L 227.480469 284.425781 L 227.480469 169.007812 L 222.050781 169.007812 Z M 186.382812 227.898438 L 184.476562 227.898438 L 184.476562 246.875 L 179.042969 246.875 L 179.042969 265.363281 L 184.476562 265.363281 L 184.476562 316.589844 L 186.382812 316.589844 L 186.382812 265.363281 L 191.816406 265.363281 L 191.816406 246.875 L 186.382812 246.875 Z M 168.558594 250.660156 L 166.648438 250.660156 L 166.648438 265.363281 L 161.203125 265.363281 L 161.203125 290.097656 L 166.636719 290.097656 L 166.636719 301.746094 L 168.546875 301.746094 L 168.546875 290.097656 L 173.980469 290.097656 L 173.980469 265.363281 L 168.546875 265.363281 L 168.546875 250.660156 Z M 132.890625 182.863281 L 130.984375 182.863281 L 130.984375 218.246094 L 125.550781 218.246094 L 125.550781 239.359375 L 130.984375 239.359375 L 130.984375 271.554688 L 132.890625 271.554688 L 132.890625 239.359375 L 138.324219 239.359375 L 138.324219 218.246094 L 132.890625 218.246094 Z M 115.117188 224.296875 L 113.210938 224.296875 L 113.210938 239.359375 L 107.710938 239.359375 L 107.710938 290.097656 L 113.210938 290.097656 L 113.210938 306.429688 L 115.117188 306.429688 L 115.117188 290.097656 L 120.496094 290.097656 L 120.496094 239.359375 L 115.117188 239.359375 Z M 97.226562 282.789062 L 95.320312 282.789062 L 95.320312 290.097656 L 89.886719 290.097656 L 89.886719 321.945312 L 95.320312 321.945312 L 95.320312 329.472656 L 97.226562 329.472656 L 97.226562 321.945312 L 102.660156 321.945312 L 102.660156 290.097656 L 97.226562 290.097656 Z M 79.390625 315.441406 L 77.480469 315.441406 L 77.480469 321.945312 L 72.046875 321.945312 L 72.046875 334.730469 L 77.480469 334.730469 L 77.480469 347.636719 L 79.390625 347.636719 L 79.390625 334.730469 L 84.820312 334.730469 L 84.820312 321.945312 L 79.390625 321.945312 Z M 43.734375 241.355469 L 41.816406 241.355469 L 41.816406 260.332031 L 36.382812 260.332031 L 36.382812 293.101562 L 41.816406 293.101562 L 41.816406 316.199219 L 43.722656 316.199219 L 43.722656 293.101562 L 49.15625 293.101562 L 49.15625 260.332031 L 43.722656 260.332031 L 43.722656 241.355469 Z M 25.898438 287.246094 L 23.988281 287.246094 L 23.988281 293.101562 L 18.554688 293.101562 L 18.554688 320.332031 L 23.988281 320.332031 L 23.988281 334.960938 L 25.898438 334.960938 L 25.898438 320.332031 L 31.328125 320.332031 L 31.328125 293.101562 L 25.898438 293.101562 Z M 8.070312 313.03125 L 6.148438 313.03125 L 6.148438 320.332031 L 0.71875 320.332031 L 0.71875 371.070312 L 6.148438 371.070312 L 6.148438 390.046875 L 8.058594 390.046875 L 8.058594 371.070312 L 13.492188 371.070312 L 13.492188 320.332031 L 8.070312 320.332031 Z M 8.070312 313.03125 " fill-opacity="1" fill-rule="nonzero"/></g></g></g></g><g clip-path="url(#4fa7f6111e)"><path fill="#ffffff" d="M 248.65625 416.808594 L 238.476562 416.808594 C 234.167969 416.808594 230.640625 420.335938 230.640625 424.644531 L 230.640625 434.824219 C 230.640625 439.136719 234.167969 442.664062 238.476562 442.664062 L 248.65625 442.664062 C 252.964844 442.664062 256.496094 439.136719 256.496094 434.824219 L 256.496094 424.644531 C 256.496094 420.316406 252.984375 416.808594 248.65625 416.808594 M 325.25 333.40625 L 325.25 470.0625 L 351.144531 470.0625 L 351.144531 333.40625 Z M 261.375 370.511719 C 267.953125 394.363281 263.796875 378.539062 279.964844 441.308594 L 287.382812 470.121094 L 314.898438 470.121094 L 289.023438 370.28125 C 282.65625 345.703125 269.402344 333.40625 249.039062 333.40625 L 237.867188 333.40625 C 217.617188 333.40625 204.230469 345.703125 197.863281 370.359375 L 172.234375 470.0625 L 199.671875 470.0625 L 225.300781 370.320312 C 227.417969 362.140625 232.183594 358.097656 239.46875 358.097656 L 247.34375 358.097656 C 254.453125 358.078125 259.105469 362.21875 261.375 370.511719 " fill-opacity="1" fill-rule="evenodd"/></g><g fill="#ffffff" fill-opacity="1"><g transform="translate(360.512534, 381.650745)"><g><path d="M 2.1875 -45.6875 L 13.296875 -45.6875 L 13.296875 -43.265625 C 14.878906 -45.210938 17.0625 -46.1875 19.84375 -46.1875 C 23.382812 -46.1875 25.851562 -45 27.25 -42.625 C 28.644531 -40.257812 29.34375 -36.972656 29.34375 -32.765625 L 29.34375 -15.859375 C 29.34375 -12.273438 29.132812 -9.347656 28.71875 -7.078125 C 28.300781 -4.816406 27.382812 -2.988281 25.96875 -1.59375 C 24.550781 -0.195312 22.40625 0.5 19.53125 0.5 C 16.789062 0.5 14.710938 -0.269531 13.296875 -1.8125 L 13.296875 9.109375 L 2.1875 9.109375 Z M 15.921875 -7.984375 C 16.921875 -7.984375 17.566406 -8.441406 17.859375 -9.359375 C 18.148438 -10.273438 18.296875 -11.609375 18.296875 -13.359375 L 18.296875 -32.765625 C 18.296875 -34.347656 18.148438 -35.554688 17.859375 -36.390625 C 17.566406 -37.222656 16.898438 -37.640625 15.859375 -37.640625 C 14.148438 -37.640625 13.296875 -36.054688 13.296875 -32.890625 L 13.296875 -12.859375 C 13.296875 -11.316406 13.472656 -10.117188 13.828125 -9.265625 C 14.179688 -8.410156 14.878906 -7.984375 15.921875 -7.984375 Z M 15.921875 -7.984375 "/></g></g></g><g fill="#ffffff" fill-opacity="1"><g transform="translate(391.719765, 381.650745)"><g><path d="M 15.484375 0.5 C 6.367188 0.5 1.8125 -4.222656 1.8125 -13.671875 L 1.8125 -32.015625 C 1.8125 -36.347656 3.023438 -39.789062 5.453125 -42.34375 C 7.890625 -44.90625 11.234375 -46.1875 15.484375 -46.1875 C 19.722656 -46.1875 23.0625 -44.90625 25.5 -42.34375 C 27.9375 -39.789062 29.15625 -36.347656 29.15625 -32.015625 L 29.15625 -13.671875 C 29.15625 -4.222656 24.597656 0.5 15.484375 0.5 Z M 15.484375 -7.921875 C 16.359375 -7.921875 17.003906 -8.234375 17.421875 -8.859375 C 17.835938 -9.484375 18.046875 -10.335938 18.046875 -11.421875 L 18.046875 -33.765625 C 18.046875 -36.429688 17.191406 -37.765625 15.484375 -37.765625 C 13.773438 -37.765625 12.921875 -36.429688 12.921875 -33.765625 L 12.921875 -11.421875 C 12.921875 -10.335938 13.128906 -9.484375 13.546875 -8.859375 C 13.960938 -8.234375 14.609375 -7.921875 15.484375 -7.921875 Z M 15.484375 -7.921875 "/></g></g></g><g fill="#ffffff" fill-opacity="1"><g transform="translate(422.739753, 381.650745)"><g><path d="M 6.984375 0 L 1.4375 -45.6875 L 10.796875 -45.6875 L 13.859375 -21.15625 L 16.484375 -45.6875 L 26.03125 -45.6875 L 29.15625 -21.15625 L 31.703125 -45.6875 L 42.015625 -45.6875 L 36.140625 0 L 25.21875 0 L 21.96875 -25.96875 L 19.09375 0 Z M 6.984375 0 "/></g></g></g><g fill="#ffffff" fill-opacity="1"><g transform="translate(466.180222, 381.650745)"><g><path d="M 14.984375 0.5 C 10.273438 0.5 6.898438 -0.785156 4.859375 -3.359375 C 2.828125 -5.941406 1.8125 -9.796875 1.8125 -14.921875 L 1.8125 -33.265625 C 1.8125 -37.472656 3.015625 -40.675781 5.421875 -42.875 C 7.835938 -45.082031 11.210938 -46.1875 15.546875 -46.1875 C 24.328125 -46.1875 28.71875 -41.878906 28.71875 -33.265625 L 28.71875 -29.96875 C 28.71875 -26.632812 28.675781 -23.925781 28.59375 -21.84375 L 12.734375 -21.84375 L 12.734375 -12.984375 C 12.734375 -11.398438 12.898438 -10.160156 13.234375 -9.265625 C 13.566406 -8.367188 14.273438 -7.921875 15.359375 -7.921875 C 16.191406 -7.921875 16.785156 -8.171875 17.140625 -8.671875 C 17.492188 -9.171875 17.703125 -9.742188 17.765625 -10.390625 C 17.828125 -11.035156 17.859375 -11.984375 17.859375 -13.234375 L 17.859375 -17.671875 L 28.71875 -17.671875 L 28.71875 -15.046875 C 28.71875 -9.710938 27.6875 -5.785156 25.625 -3.265625 C 23.5625 -0.753906 20.015625 0.5 14.984375 0.5 Z M 17.859375 -27.28125 L 17.859375 -33.140625 C 17.859375 -36.429688 17.046875 -38.078125 15.421875 -38.078125 C 13.585938 -38.078125 12.671875 -36.429688 12.671875 -33.140625 L 12.671875 -27.28125 Z M 17.859375 -27.28125 "/></g></g></g><g fill="#ffffff" fill-opacity="1"><g transform="translate(496.638488, 381.650745)"><g><path d="M 2.1875 -45.6875 L 13.109375 -45.6875 L 13.109375 -40.640625 C 13.648438 -42.429688 14.597656 -43.8125 15.953125 -44.78125 C 17.304688 -45.757812 18.976562 -46.25 20.96875 -46.25 L 20.96875 -37.140625 C 19.4375 -37.140625 17.742188 -36.921875 15.890625 -36.484375 C 14.035156 -36.046875 13.109375 -35.535156 13.109375 -34.953125 L 13.109375 0 L 2.1875 0 Z M 2.1875 -45.6875 "/></g></g></g><g fill="#ffffff" fill-opacity="1"><g transform="translate(518.109063, 381.650745)"><g><path d="M 14.984375 0.5 C 10.273438 0.5 6.898438 -0.785156 4.859375 -3.359375 C 2.828125 -5.941406 1.8125 -9.796875 1.8125 -14.921875 L 1.8125 -33.265625 C 1.8125 -37.472656 3.015625 -40.675781 5.421875 -42.875 C 7.835938 -45.082031 11.210938 -46.1875 15.546875 -46.1875 C 24.328125 -46.1875 28.71875 -41.878906 28.71875 -33.265625 L 28.71875 -29.96875 C 28.71875 -26.632812 28.675781 -23.925781 28.59375 -21.84375 L 12.734375 -21.84375 L 12.734375 -12.984375 C 12.734375 -11.398438 12.898438 -10.160156 13.234375 -9.265625 C 13.566406 -8.367188 14.273438 -7.921875 15.359375 -7.921875 C 16.191406 -7.921875 16.785156 -8.171875 17.140625 -8.671875 C 17.492188 -9.171875 17.703125 -9.742188 17.765625 -10.390625 C 17.828125 -11.035156 17.859375 -11.984375 17.859375 -13.234375 L 17.859375 -17.671875 L 28.71875 -17.671875 L 28.71875 -15.046875 C 28.71875 -9.710938 27.6875 -5.785156 25.625 -3.265625 C 23.5625 -0.753906 20.015625 0.5 14.984375 0.5 Z M 17.859375 -27.28125 L 17.859375 -33.140625 C 17.859375 -36.429688 17.046875 -38.078125 15.421875 -38.078125 C 13.585938 -38.078125 12.671875 -36.429688 12.671875 -33.140625 L 12.671875 -27.28125 Z M 17.859375 -27.28125 "/></g></g></g><g fill="#ffffff" fill-opacity="1"><g transform="translate(548.567329, 381.650745)"><g><path d="M 11.171875 0.5 C 8.503906 0.5 6.492188 -0.132812 5.140625 -1.40625 C 3.796875 -2.675781 2.90625 -4.359375 2.46875 -6.453125 C 2.03125 -8.554688 1.8125 -11.253906 1.8125 -14.546875 L 1.9375 -35.140625 C 1.9375 -38.390625 2.753906 -41.039062 4.390625 -43.09375 C 6.035156 -45.15625 8.359375 -46.1875 11.359375 -46.1875 C 14.316406 -46.1875 16.523438 -45.210938 17.984375 -43.265625 L 17.984375 -53.9375 L 28.90625 -53.9375 L 28.90625 0 L 17.984375 0 L 17.984375 -4.875 C 17.359375 -3.082031 16.515625 -1.738281 15.453125 -0.84375 C 14.390625 0.0507812 12.960938 0.5 11.171875 0.5 Z M 15.359375 -8.046875 C 16.441406 -8.046875 17.148438 -8.578125 17.484375 -9.640625 C 17.816406 -10.703125 17.984375 -12.128906 17.984375 -13.921875 L 17.984375 -33.015625 C 17.984375 -34.347656 17.796875 -35.472656 17.421875 -36.390625 C 17.046875 -37.304688 16.378906 -37.765625 15.421875 -37.765625 C 14.335938 -37.765625 13.617188 -37.335938 13.265625 -36.484375 C 12.910156 -35.628906 12.734375 -34.472656 12.734375 -33.015625 L 12.734375 -13.796875 C 12.734375 -9.960938 13.609375 -8.046875 15.359375 -8.046875 Z M 15.359375 -8.046875 "/></g></g></g><g fill="#ffffff" fill-opacity="1"><g transform="translate(579.663221, 381.650745)"><g/></g></g><g fill="#ffffff" fill-opacity="1"><g transform="translate(360.512534, 468.447717)"><g><path d="M 11.609375 0.5 C 8.734375 0.5 6.753906 -0.101562 5.671875 -1.3125 C 4.597656 -2.519531 4.0625 -4.453125 4.0625 -7.109375 L 4.0625 -35.640625 L 1 -35.640625 L 1 -43.9375 L 4.0625 -43.9375 L 4.0625 -53.625 L 14.671875 -53.625 L 14.671875 -43.9375 L 17.796875 -43.9375 L 17.796875 -35.640625 L 14.671875 -35.640625 L 14.671875 -9.984375 C 14.671875 -9.191406 14.734375 -8.609375 14.859375 -8.234375 C 14.984375 -7.859375 15.316406 -7.671875 15.859375 -7.671875 C 16.273438 -7.671875 16.671875 -7.691406 17.046875 -7.734375 C 17.421875 -7.773438 17.671875 -7.796875 17.796875 -7.796875 L 17.796875 -0.3125 C 17.171875 -0.144531 16.265625 0.03125 15.078125 0.21875 C 13.890625 0.40625 12.734375 0.5 11.609375 0.5 Z M 11.609375 0.5 "/></g></g></g><g fill="#ffffff" fill-opacity="1"><g transform="translate(379.548945, 468.447717)"><g><path d="M 2.1875 -45.6875 L 13.109375 -45.6875 L 13.109375 -40.640625 C 13.648438 -42.429688 14.597656 -43.8125 15.953125 -44.78125 C 17.304688 -45.757812 18.976562 -46.25 20.96875 -46.25 L 20.96875 -37.140625 C 19.4375 -37.140625 17.742188 -36.921875 15.890625 -36.484375 C 14.035156 -36.046875 13.109375 -35.535156 13.109375 -34.953125 L 13.109375 0 L 2.1875 0 Z M 2.1875 -45.6875 "/></g></g></g><g fill="#ffffff" fill-opacity="1"><g transform="translate(401.01952, 468.447717)"><g><path d="M 10.484375 0.5 C 6.953125 0.5 4.53125 -0.671875 3.21875 -3.015625 C 1.90625 -5.367188 1.25 -8.734375 1.25 -13.109375 C 1.25 -16.691406 1.71875 -19.4375 2.65625 -21.34375 C 3.59375 -23.257812 4.890625 -24.664062 6.546875 -25.5625 C 8.210938 -26.457031 10.753906 -27.445312 14.171875 -28.53125 L 17.171875 -29.53125 L 17.171875 -34.203125 C 17.171875 -35.410156 16.929688 -36.335938 16.453125 -36.984375 C 15.972656 -37.628906 15.398438 -37.953125 14.734375 -37.953125 C 14.148438 -37.953125 13.640625 -37.679688 13.203125 -37.140625 C 12.765625 -36.597656 12.546875 -35.867188 12.546875 -34.953125 L 12.546875 -32.203125 L 1.9375 -32.203125 L 1.9375 -33.703125 C 1.9375 -38.203125 2.984375 -41.40625 5.078125 -43.3125 C 7.179688 -45.226562 10.609375 -46.1875 15.359375 -46.1875 C 19.140625 -46.1875 22.21875 -45.195312 24.59375 -43.21875 C 26.96875 -41.25 28.15625 -38.453125 28.15625 -34.828125 L 28.15625 0 L 17.296875 0 L 17.296875 -5.4375 C 16.753906 -3.5625 15.890625 -2.101562 14.703125 -1.0625 C 13.515625 -0.0195312 12.109375 0.5 10.484375 0.5 Z M 14.796875 -7.984375 C 15.628906 -7.984375 16.222656 -8.328125 16.578125 -9.015625 C 16.929688 -9.703125 17.109375 -10.546875 17.109375 -11.546875 L 17.109375 -24.28125 C 15.484375 -23.65625 14.285156 -22.863281 13.515625 -21.90625 C 12.742188 -20.945312 12.359375 -19.617188 12.359375 -17.921875 L 12.359375 -12.046875 C 12.359375 -9.335938 13.171875 -7.984375 14.796875 -7.984375 Z M 14.796875 -7.984375 "/></g></g></g><g fill="#ffffff" fill-opacity="1"><g transform="translate(431.165707, 468.447717)"><g><path d="M 2.125 -48.75 L 2.125 -56.359375 L 13.046875 -56.359375 L 13.046875 -48.75 Z M 2.125 0 L 2.125 -45.6875 L 13.046875 -45.6875 L 13.046875 0 Z M 2.125 0 "/></g></g></g><g fill="#ffffff" fill-opacity="1"><g transform="translate(446.332428, 468.447717)"><g><path d="M 2.1875 -45.6875 L 13.109375 -45.6875 L 13.109375 -39.890625 C 13.566406 -41.765625 14.359375 -43.28125 15.484375 -44.4375 C 16.609375 -45.601562 18.101562 -46.1875 19.96875 -46.1875 C 23.050781 -46.1875 25.332031 -45.238281 26.8125 -43.34375 C 28.289062 -41.457031 29.03125 -38.765625 29.03125 -35.265625 L 29.03125 0 L 18.296875 0 L 18.296875 -34.140625 C 18.296875 -35.140625 18.097656 -35.992188 17.703125 -36.703125 C 17.304688 -37.410156 16.691406 -37.765625 15.859375 -37.765625 C 14.734375 -37.765625 13.992188 -37.253906 13.640625 -36.234375 C 13.285156 -35.210938 13.109375 -33.847656 13.109375 -32.140625 L 13.109375 0 L 2.1875 0 Z M 2.1875 -45.6875 "/></g></g></g><g fill="#ffffff" fill-opacity="1"><g transform="translate(477.477254, 468.447717)"><g><path d="M 2.125 -48.75 L 2.125 -56.359375 L 13.046875 -56.359375 L 13.046875 -48.75 Z M 2.125 0 L 2.125 -45.6875 L 13.046875 -45.6875 L 13.046875 0 Z M 2.125 0 "/></g></g></g><g fill="#ffffff" fill-opacity="1"><g transform="translate(492.643976, 468.447717)"><g><path d="M 2.1875 -45.6875 L 13.109375 -45.6875 L 13.109375 -39.890625 C 13.566406 -41.765625 14.359375 -43.28125 15.484375 -44.4375 C 16.609375 -45.601562 18.101562 -46.1875 19.96875 -46.1875 C 23.050781 -46.1875 25.332031 -45.238281 26.8125 -43.34375 C 28.289062 -41.457031 29.03125 -38.765625 29.03125 -35.265625 L 29.03125 0 L 18.296875 0 L 18.296875 -34.140625 C 18.296875 -35.140625 18.097656 -35.992188 17.703125 -36.703125 C 17.304688 -37.410156 16.691406 -37.765625 15.859375 -37.765625 C 14.734375 -37.765625 13.992188 -37.253906 13.640625 -36.234375 C 13.285156 -35.210938 13.109375 -33.847656 13.109375 -32.140625 L 13.109375 0 L 2.1875 0 Z M 2.1875 -45.6875 "/></g></g></g><g fill="#ffffff" fill-opacity="1"><g transform="translate(523.788802, 468.447717)"><g><path d="M 14.484375 6.671875 C 11.234375 6.671875 8.679688 6.410156 6.828125 5.890625 C 4.984375 5.378906 3.164062 4.394531 1.375 2.9375 L 5.125 -3.375 C 7.78125 -1.789062 10.421875 -1 13.046875 -1 C 14.753906 -1 16.046875 -1.539062 16.921875 -2.625 C 17.796875 -3.707031 18.234375 -5.179688 18.234375 -7.046875 L 18.234375 -9.546875 C 17.359375 -6.429688 15.046875 -4.875 11.296875 -4.875 C 8.171875 -4.875 5.867188 -5.929688 4.390625 -8.046875 C 2.921875 -10.171875 2.1875 -13.003906 2.1875 -16.546875 L 2.1875 -33.703125 C 2.1875 -37.742188 2.859375 -40.832031 4.203125 -42.96875 C 5.554688 -45.113281 7.921875 -46.1875 11.296875 -46.1875 C 13.253906 -46.1875 14.804688 -45.695312 15.953125 -44.71875 C 17.097656 -43.75 17.859375 -42.367188 18.234375 -40.578125 L 18.234375 -45.6875 L 29.40625 -45.6875 L 29.40625 -7.734375 C 29.40625 -2.617188 28.21875 1.054688 25.84375 3.296875 C 23.46875 5.546875 19.679688 6.671875 14.484375 6.671875 Z M 15.671875 -13.109375 C 17.378906 -13.109375 18.234375 -14.648438 18.234375 -17.734375 L 18.234375 -34.015625 C 18.234375 -34.929688 17.984375 -35.804688 17.484375 -36.640625 C 16.984375 -37.472656 16.359375 -37.890625 15.609375 -37.890625 C 14.648438 -37.890625 14.003906 -37.546875 13.671875 -36.859375 C 13.335938 -36.171875 13.171875 -35.222656 13.171875 -34.015625 L 13.171875 -17.734375 C 13.171875 -16.359375 13.335938 -15.242188 13.671875 -14.390625 C 14.003906 -13.535156 14.671875 -13.109375 15.671875 -13.109375 Z M 15.671875 -13.109375 "/></g></g></g><g fill="#ffffff" fill-opacity="1"><g transform="translate(555.245692, 468.447717)"><g/></g></g><g fill="#ffffff" fill-opacity="1"><g transform="translate(569.850676, 468.447717)"><g><path d="M 19.84375 0.5 C 16.851562 0.5 14.710938 -1.289062 13.421875 -4.875 L 13.421875 0 L 2.1875 0 L 2.1875 -53.9375 L 13.421875 -53.9375 L 13.421875 -43.515625 C 15.171875 -45.296875 17.207031 -46.1875 19.53125 -46.1875 C 23.070312 -46.1875 25.613281 -45.132812 27.15625 -43.03125 C 28.695312 -40.9375 29.46875 -37.910156 29.46875 -33.953125 L 29.46875 -11.921875 C 29.46875 -8.171875 28.675781 -5.160156 27.09375 -2.890625 C 25.507812 -0.628906 23.09375 0.5 19.84375 0.5 Z M 16.171875 -7.984375 C 16.921875 -7.984375 17.453125 -8.222656 17.765625 -8.703125 C 18.078125 -9.179688 18.265625 -9.785156 18.328125 -10.515625 C 18.390625 -11.242188 18.421875 -12.378906 18.421875 -13.921875 L 18.421875 -32.953125 C 18.421875 -34.578125 18.273438 -35.785156 17.984375 -36.578125 C 17.691406 -37.367188 17.066406 -37.765625 16.109375 -37.765625 C 15.066406 -37.765625 14.359375 -37.367188 13.984375 -36.578125 C 13.609375 -35.785156 13.421875 -34.617188 13.421875 -33.078125 L 13.421875 -13.921875 C 13.421875 -11.921875 13.585938 -10.429688 13.921875 -9.453125 C 14.253906 -8.472656 15.003906 -7.984375 16.171875 -7.984375 Z M 16.171875 -7.984375 "/></g></g></g><g fill="#ffffff" fill-opacity="1"><g transform="translate(601.12031, 468.447717)"><g><path d="M 15.484375 0.5 C 6.367188 0.5 1.8125 -4.222656 1.8125 -13.671875 L 1.8125 -32.015625 C 1.8125 -36.347656 3.023438 -39.789062 5.453125 -42.34375 C 7.890625 -44.90625 11.234375 -46.1875 15.484375 -46.1875 C 19.722656 -46.1875 23.0625 -44.90625 25.5 -42.34375 C 27.9375 -39.789062 29.15625 -36.347656 29.15625 -32.015625 L 29.15625 -13.671875 C 29.15625 -4.222656 24.597656 0.5 15.484375 0.5 Z M 15.484375 -7.921875 C 16.359375 -7.921875 17.003906 -8.234375 17.421875 -8.859375 C 17.835938 -9.484375 18.046875 -10.335938 18.046875 -11.421875 L 18.046875 -33.765625 C 18.046875 -36.429688 17.191406 -37.765625 15.484375 -37.765625 C 13.773438 -37.765625 12.921875 -36.429688 12.921875 -33.765625 L 12.921875 -11.421875 C 12.921875 -10.335938 13.128906 -9.484375 13.546875 -8.859375 C 13.960938 -8.234375 14.609375 -7.921875 15.484375 -7.921875 Z M 15.484375 -7.921875 "/></g></g></g><g fill="#ffffff" fill-opacity="1"><g transform="translate(632.140313, 468.447717)"><g><path d="M 11.609375 0.5 C 8.734375 0.5 6.753906 -0.101562 5.671875 -1.3125 C 4.597656 -2.519531 4.0625 -4.453125 4.0625 -7.109375 L 4.0625 -35.640625 L 1 -35.640625 L 1 -43.9375 L 4.0625 -43.9375 L 4.0625 -53.625 L 14.671875 -53.625 L 14.671875 -43.9375 L 17.796875 -43.9375 L 17.796875 -35.640625 L 14.671875 -35.640625 L 14.671875 -9.984375 C 14.671875 -9.191406 14.734375 -8.609375 14.859375 -8.234375 C 14.984375 -7.859375 15.316406 -7.671875 15.859375 -7.671875 C 16.273438 -7.671875 16.671875 -7.691406 17.046875 -7.734375 C 17.421875 -7.773438 17.671875 -7.796875 17.796875 -7.796875 L 17.796875 -0.3125 C 17.171875 -0.144531 16.265625 0.03125 15.078125 0.21875 C 13.890625 0.40625 12.734375 0.5 11.609375 0.5 Z M 11.609375 0.5 "/></g></g></g></svg>